<svg width="246" height="172" viewBox="0 0 246 172" fill="none" xmlns="http://www.w3.org/2000/svg">
<path d="M32.0156 160.125L30.7031 162L28.1484 161.953L29.625 159.844C26.7344 159.344 24.1641 158.289 21.9141 156.68C17.1641 160.523 12.6484 162.445 8.36719 162.445C6.52344 162.445 4.83594 161.953 3.30469 160.969C1.78906 159.984 1.03125 158.75 1.03125 157.266C1.03125 156.453 1.25781 155.82 1.71094 155.367C2.17969 154.898 2.69531 154.664 3.25781 154.664C3.77344 154.664 4.21094 154.844 4.57031 155.203C4.92969 155.547 5.10938 155.961 5.10938 156.445C5.10938 156.867 4.95312 157.227 4.64062 157.523C4.34375 157.82 3.97656 157.969 3.53906 157.969C2.55469 157.969 2.03125 157.328 1.96875 156.047L1.875 156.023C1.5 156.477 1.3125 156.977 1.3125 157.523C1.3125 158.789 2.05469 159.891 3.53906 160.828C5.02344 161.766 6.73438 162.234 8.67188 162.234C10.9844 162.234 13.4141 161.594 15.9609 160.312C18.5078 159.031 20.4297 157.758 21.7266 156.492C18.2422 153.211 16.5 149.688 16.5 145.922C16.5 143.609 17.1094 141.656 18.3281 140.062C19.5625 138.453 21.0938 137.648 22.9219 137.648C25 137.648 26.8906 138.484 28.5938 140.156C30.2969 141.812 31.5938 144 32.4844 146.719C38.9688 140.719 43.6016 136.781 46.3828 134.906C49.1641 133.031 51.6719 131.633 53.9062 130.711C56.1562 129.773 58.2734 129.266 60.2578 129.188L53.6719 135.164C50.5312 138.008 46.5938 142.211 41.8594 147.773C37.125 153.32 33.9062 157.352 32.2031 159.867C34.8594 159.727 37.0703 158.93 38.8359 157.477L39 157.641C37.2344 159.094 34.9062 159.922 32.0156 160.125ZM32.5312 147.023C32.7656 147.914 32.8828 148.836 32.8828 149.789C32.8828 152.133 32.1875 154.875 30.7969 158.016L30.9844 158.109C35.125 152.406 40.0703 146.672 45.8203 140.906C51.5703 135.141 56.0312 131.398 59.2031 129.68L59.1562 129.516C56.125 129.797 52.5625 131.211 48.4688 133.758C44.375 136.305 39.0625 140.727 32.5312 147.023ZM21.9141 156.352C23.1484 155.414 24.9531 153.859 27.3281 151.688C29.7031 149.5 31.3594 147.898 32.2969 146.883C31.6562 144.648 30.5391 142.719 28.9453 141.094C27.3672 139.469 25.6328 138.656 23.7422 138.656C21.7734 138.656 20.125 139.383 18.7969 140.836C17.4844 142.289 16.8281 144.117 16.8281 146.32C16.8281 149.945 18.5234 153.289 21.9141 156.352ZM29.7891 159.633C31.7109 155.977 32.6719 152.703 32.6719 149.812C32.6719 148.969 32.5703 148.078 32.3672 147.141C28.4609 151 25.0391 154.133 22.1016 156.539C22.9141 157.211 24.0781 157.859 25.5938 158.484C27.1094 159.094 28.5078 159.477 29.7891 159.633ZM48.3281 157.477L48.4922 157.641C46.6172 159.297 44.9062 160.5 43.3594 161.25C41.8125 161.984 40.5781 162.352 39.6562 162.352C38.375 162.352 37.7344 161.695 37.7344 160.383C37.7344 158.617 38.9375 156.953 41.3438 155.391C43.7656 153.828 45.6562 153.047 47.0156 153.047C47.2656 153.047 47.4766 153.117 47.6484 153.258C47.8359 153.398 47.9297 153.57 47.9297 153.773C47.9297 154.539 47.1719 155.344 45.6562 156.188C44.1406 157.031 42.4609 157.555 40.6172 157.758C39.0234 159.352 38.2266 160.445 38.2266 161.039C38.2266 161.32 38.3672 161.586 38.6484 161.836C38.9297 162.07 39.2578 162.188 39.6328 162.188C40.4453 162.188 41.5938 161.836 43.0781 161.133C44.5781 160.414 46.3281 159.195 48.3281 157.477ZM40.9688 157.477C41.4375 157.477 42.2656 157.273 43.4531 156.867C44.6406 156.461 45.625 155.938 46.4062 155.297C47.2031 154.656 47.6016 154.125 47.6016 153.703C47.6016 153.406 47.4297 153.258 47.0859 153.258C46.6797 153.258 46.2266 153.383 45.7266 153.633C45.2422 153.883 44.5 154.398 43.5 155.18C42.5 155.945 41.6562 156.711 40.9688 157.477ZM48.4688 157.641L48.3047 157.477L56.9062 150.281L57.0469 150.516C56.3906 151.047 55.9688 151.445 55.7812 151.711C55.5938 151.977 55.5 152.312 55.5 152.719C55.5 153.047 55.5547 153.555 55.6641 154.242C55.7734 154.914 55.8281 155.531 55.8281 156.094C55.8281 157.234 55.4219 158.289 54.6094 159.258L56.7188 157.477L56.8828 157.641C53.3672 160.734 50.5156 162.281 48.3281 162.281C47.7969 162.281 47.3359 162.133 46.9453 161.836C46.5703 161.523 46.3828 161.125 46.3828 160.641C46.3828 160.281 46.5078 159.977 46.7578 159.727C46.9922 159.461 47.2734 159.328 47.6016 159.328C47.8047 159.328 47.9766 159.398 48.1172 159.539C48.2734 159.68 48.3516 159.844 48.3516 160.031C48.3516 160.297 48.2422 160.539 48.0234 160.758C47.8203 160.961 47.6016 161.062 47.3672 161.062C47.2734 161.062 47.1484 161.039 46.9922 160.992C46.9922 161.68 47.4297 162.023 48.3047 162.023C49.5391 162.023 50.9297 161.125 52.4766 159.328C54.0391 157.531 54.8984 155.641 55.0547 153.656C55.1172 153.016 55.2266 152.438 55.3828 151.922L48.4688 157.641ZM56.9062 157.641L56.7422 157.477L63.1875 152.203L65.9297 150.047H63.7969L63.8906 149.836H66.2578L70.2188 145.688L72.2109 145.641L68.3906 149.836H71.7656L71.6953 150.047H68.1562L60.0703 158.672C59.1016 159.703 58.5156 160.352 58.3125 160.617C58.125 160.883 58.0312 161.133 58.0312 161.367C58.0312 161.602 58.125 161.805 58.3125 161.977C58.5156 162.133 58.7266 162.211 58.9453 162.211C60.2266 162.211 62.6797 160.633 66.3047 157.477L66.4688 157.641C62.7031 160.875 60.1797 162.492 58.8984 162.492C58.4922 162.492 58.1406 162.328 57.8438 162C57.5625 161.656 57.4219 161.258 57.4219 160.805C57.4219 159.633 58.2031 158.219 59.7656 156.562L64.5469 151.594L64.4531 151.523L56.9062 157.641ZM66.4688 157.641L66.3047 157.477L68.5547 155.625C69.7734 154.609 71.2188 153.523 72.8906 152.367C74.5781 151.211 75.4375 150.617 75.4688 150.586L81.9375 143.977C83.2031 142.68 84.4375 141.508 85.6406 140.461C86.8594 139.414 88.0547 138.531 89.2266 137.812C90.3984 137.078 91.2969 136.609 91.9219 136.406C92.5625 136.203 93.0625 136.102 93.4219 136.102C94.375 136.102 94.8516 136.555 94.8516 137.461C94.8516 138.664 93.5078 140.359 90.8203 142.547C88.1328 144.734 84.6562 146.805 80.3906 148.758C78.5938 149.586 77.5781 150.125 77.3438 150.375L74.8359 153.164C73.1328 155.055 71.4062 157.07 69.6562 159.211L69.8672 159.281C71.5859 157.641 73.4062 156.148 75.3281 154.805C77.25 153.445 78.6719 152.766 79.5938 152.766C80.5781 152.766 81.0703 153.266 81.0703 154.266C81.0703 154.891 80.9141 155.5 80.6016 156.094C80.3047 156.672 79.6328 157.406 78.5859 158.297L77.1562 159.516C76.125 160.391 75.6094 161.031 75.6094 161.438C75.6094 161.828 75.8438 162.023 76.3125 162.023C77.7188 162.023 80.1328 160.508 83.5547 157.477L83.6953 157.641L81.8672 159.188C80.9297 159.984 79.9219 160.695 78.8438 161.32C77.7656 161.945 76.9297 162.258 76.3359 162.258C75.9297 162.258 75.6016 162.102 75.3516 161.789C75.1172 161.461 75 161.047 75 160.547C75 159.984 75.1797 159.469 75.5391 159C75.8984 158.516 76.6797 157.758 77.8828 156.727C79.1016 155.695 79.8438 155.016 80.1094 154.688C80.3906 154.359 80.5312 154.062 80.5312 153.797C80.5312 153.562 80.4297 153.375 80.2266 153.234C80.0391 153.078 79.8281 153 79.5938 153C79.2656 153 78.7109 153.172 77.9297 153.516C77.1484 153.859 76.0547 154.539 74.6484 155.555C73.2422 156.555 71.8516 157.719 70.4766 159.047C69.1016 160.359 68.0312 161.344 67.2656 162L64.9453 162.023L74.625 151.641L74.5312 151.523C73.1094 152.336 70.4219 154.375 66.4688 157.641ZM94.4766 137.391C94.4766 136.734 94.1406 136.406 93.4688 136.406C92.5156 136.406 91.3203 136.898 89.8828 137.883C88.4453 138.867 86.1719 140.984 83.0625 144.234C79.9531 147.469 78.3984 149.172 78.3984 149.344C78.3984 149.375 79.4297 148.914 81.4922 147.961C82.7109 147.383 83.9375 146.742 85.1719 146.039C87.0625 144.945 88.6484 143.906 89.9297 142.922C91.2109 141.922 92.2656 140.93 93.0938 139.945C93.7344 139.195 94.1484 138.562 94.3359 138.047C94.4297 137.812 94.4766 137.594 94.4766 137.391ZM93.0469 157.477L93.2109 157.641C91.3359 159.297 89.625 160.5 88.0781 161.25C86.5312 161.984 85.2969 162.352 84.375 162.352C83.0938 162.352 82.4531 161.695 82.4531 160.383C82.4531 158.617 83.6562 156.953 86.0625 155.391C88.4844 153.828 90.375 153.047 91.7344 153.047C91.9844 153.047 92.1953 153.117 92.3672 153.258C92.5547 153.398 92.6484 153.57 92.6484 153.773C92.6484 154.539 91.8906 155.344 90.375 156.188C88.8594 157.031 87.1797 157.555 85.3359 157.758C83.7422 159.352 82.9453 160.445 82.9453 161.039C82.9453 161.32 83.0859 161.586 83.3672 161.836C83.6484 162.07 83.9766 162.188 84.3516 162.188C85.1641 162.188 86.3125 161.836 87.7969 161.133C89.2969 160.414 91.0469 159.195 93.0469 157.477ZM85.6875 157.477C86.1562 157.477 86.9844 157.273 88.1719 156.867C89.3594 156.461 90.3438 155.938 91.125 155.297C91.9219 154.656 92.3203 154.125 92.3203 153.703C92.3203 153.406 92.1484 153.258 91.8047 153.258C91.3984 153.258 90.9453 153.383 90.4453 153.633C89.9609 153.883 89.2188 154.398 88.2188 155.18C87.2188 155.945 86.375 156.711 85.6875 157.477ZM93.1875 157.641L93.0234 157.477L99.4688 152.203L102.211 150.047H100.078L100.172 149.836H102.539L106.5 145.688L108.492 145.641L104.672 149.836H108.047L107.977 150.047H104.438L96.3516 158.672C95.3828 159.703 94.7969 160.352 94.5938 160.617C94.4062 160.883 94.3125 161.133 94.3125 161.367C94.3125 161.602 94.4062 161.805 94.5938 161.977C94.7969 162.133 95.0078 162.211 95.2266 162.211C96.5078 162.211 98.9609 160.633 102.586 157.477L102.75 157.641C98.9844 160.875 96.4609 162.492 95.1797 162.492C94.7734 162.492 94.4219 162.328 94.125 162C93.8438 161.656 93.7031 161.258 93.7031 160.805C93.7031 159.633 94.4844 158.219 96.0469 156.562L100.828 151.594L100.734 151.523L93.1875 157.641ZM114.258 148.266C114.258 148.609 114.117 148.898 113.836 149.133C113.555 149.367 113.258 149.484 112.945 149.484C112.727 149.484 112.539 149.406 112.383 149.25C112.227 149.078 112.148 148.875 112.148 148.641C112.148 148.344 112.281 148.062 112.547 147.797C112.812 147.531 113.109 147.398 113.438 147.398C113.672 147.398 113.867 147.484 114.023 147.656C114.18 147.828 114.258 148.031 114.258 148.266ZM102.75 157.641L102.586 157.477C103.352 156.82 105.281 155.289 108.375 152.883H110.648L103.219 160.195C102.938 160.477 102.75 160.758 102.656 161.039V161.203C102.656 161.406 102.734 161.586 102.891 161.742C103.047 161.898 103.242 161.977 103.477 161.977C103.977 161.977 104.68 161.727 105.586 161.227C106.508 160.711 108.109 159.461 110.391 157.477L110.555 157.641C107.07 160.688 104.719 162.211 103.5 162.211C103.109 162.211 102.789 162.086 102.539 161.836C102.305 161.586 102.188 161.25 102.188 160.828C102.188 160.234 102.383 159.609 102.773 158.953C103.18 158.281 104.68 156.695 107.273 154.195L107.227 154.078L105.07 155.719L102.75 157.641ZM119.391 157.477L119.555 157.641C118.195 158.859 116.688 159.953 115.031 160.922C113.375 161.875 112.078 162.352 111.141 162.352C109.922 162.352 109.312 161.664 109.312 160.289C109.312 158.398 110.461 156.68 112.758 155.133C115.055 153.586 116.773 152.812 117.914 152.812C118.305 152.812 118.625 152.93 118.875 153.164C119.141 153.383 119.273 153.656 119.273 153.984C119.273 154.453 119.07 154.898 118.664 155.32C118.258 155.742 117.875 155.953 117.516 155.953C117.312 155.953 117.125 155.867 116.953 155.695C116.781 155.523 116.695 155.344 116.695 155.156C116.695 154.891 116.805 154.656 117.023 154.453C117.242 154.234 117.484 154.125 117.75 154.125C118.016 154.125 118.203 154.227 118.312 154.43C118.422 154.633 118.508 154.734 118.57 154.734C118.695 154.734 118.805 154.641 118.898 154.453C118.992 154.266 119.039 154.102 119.039 153.961C119.039 153.695 118.93 153.477 118.711 153.305C118.492 153.133 118.266 153.047 118.031 153.047C117.094 153.047 115.508 154.25 113.273 156.656C111.039 159.062 109.922 160.594 109.922 161.25C109.922 161.516 110.039 161.727 110.273 161.883C110.508 162.039 110.781 162.117 111.094 162.117C112.078 162.117 113.375 161.633 114.984 160.664C116.609 159.695 118.078 158.633 119.391 157.477ZM160.758 144.75C156.43 151.859 152.242 156.555 148.195 158.836C144.164 161.102 140.055 162.234 135.867 162.234C133.883 162.234 132.305 161.875 131.133 161.156C129.977 160.438 129.398 159.484 129.398 158.297C129.398 157.547 129.633 156.914 130.102 156.398C130.586 155.867 131.164 155.602 131.836 155.602C132.273 155.602 132.641 155.719 132.938 155.953C133.25 156.188 133.406 156.5 133.406 156.891C133.406 157.25 133.273 157.562 133.008 157.828C132.742 158.078 132.422 158.203 132.047 158.203C131.719 158.203 131.43 158.102 131.18 157.898C130.945 157.68 130.828 157.438 130.828 157.172C130.828 157.109 130.844 157 130.875 156.844C130.75 156.781 130.672 156.75 130.641 156.75C130.453 156.75 130.266 156.906 130.078 157.219C129.906 157.531 129.82 157.883 129.82 158.273C129.82 159.383 130.336 160.281 131.367 160.969C132.414 161.641 133.914 161.977 135.867 161.977C138.508 161.977 141.086 161.445 143.602 160.383C146.133 159.305 148.422 157.727 150.469 155.648C152.516 153.555 155.117 150.156 158.273 145.453C154.695 146.438 151.523 146.93 148.758 146.93C145.68 146.93 143.297 146.312 141.609 145.078C139.938 143.844 139.102 142.328 139.102 140.531C139.102 137.531 140.695 134.93 143.883 132.727C147.086 130.508 151.391 129.398 156.797 129.398C158.094 129.398 159.445 129.469 160.852 129.609L160.805 129.82C159.539 129.664 158.328 129.586 157.172 129.586C151.781 129.586 147.469 130.828 144.234 133.312C141.016 135.797 139.406 138.266 139.406 140.719C139.406 142.297 140.211 143.688 141.82 144.891C143.445 146.078 145.812 146.672 148.922 146.672C151.156 146.672 154.344 146.164 158.484 145.148C161.266 140.727 164.469 137.234 168.094 134.672C171.719 132.109 174.602 130.828 176.742 130.828C177.398 130.828 177.93 131 178.336 131.344C178.758 131.672 178.969 132.07 178.969 132.539C178.969 133.773 178.102 135.219 176.367 136.875C174.633 138.516 172.07 140.148 168.68 141.773C165.305 143.383 162.664 144.375 160.758 144.75ZM160.922 144.469C165.031 143.391 169 141.578 172.828 139.031C176.656 136.484 178.57 134.352 178.57 132.633C178.57 132.211 178.414 131.859 178.102 131.578C177.789 131.297 177.344 131.156 176.766 131.156C175.391 131.156 173.797 131.625 171.984 132.562C170.172 133.5 168.164 135.195 165.961 137.648C163.758 140.086 162.078 142.359 160.922 144.469ZM157.922 157.641L157.758 157.477L164.203 152.203L166.945 150.047H164.812L164.906 149.836H167.273L171.234 145.688L173.227 145.641L169.406 149.836H172.781L172.711 150.047H169.172L161.086 158.672C160.117 159.703 159.531 160.352 159.328 160.617C159.141 160.883 159.047 161.133 159.047 161.367C159.047 161.602 159.141 161.805 159.328 161.977C159.531 162.133 159.742 162.211 159.961 162.211C161.242 162.211 163.695 160.633 167.32 157.477L167.484 157.641C163.719 160.875 161.195 162.492 159.914 162.492C159.508 162.492 159.156 162.328 158.859 162C158.578 161.656 158.438 161.258 158.438 160.805C158.438 159.633 159.219 158.219 160.781 156.562L165.562 151.594L165.469 151.523L157.922 157.641ZM167.484 157.641L167.32 157.477C169.102 156.023 170.344 154.984 171.047 154.359C171.75 153.719 172.359 153.227 172.875 152.883H175.102C174.664 153.352 174.047 153.977 173.25 154.758L168.07 160.125C167.664 160.547 167.414 160.898 167.32 161.18V161.344C167.32 161.547 167.406 161.734 167.578 161.906C167.766 162.062 167.984 162.141 168.234 162.141C168.922 162.141 169.914 161.711 171.211 160.852C172.523 159.977 173.719 159.023 174.797 157.992L177.773 155.203C178.586 154.453 179.438 153.68 180.328 152.883H182.648C180.539 154.93 178.859 156.656 177.609 158.062L176.062 159.797C175.312 160.641 174.938 161.203 174.938 161.484C174.938 161.938 175.227 162.164 175.805 162.164C176.492 162.164 177.375 161.789 178.453 161.039C179.547 160.273 181.016 159.086 182.859 157.477L183.023 157.641C180.336 159.969 178.562 161.352 177.703 161.789C176.859 162.227 176.211 162.445 175.758 162.445C175.414 162.445 175.109 162.312 174.844 162.047C174.594 161.781 174.469 161.422 174.469 160.969C174.469 159.828 175.289 158.438 176.93 156.797L179.156 154.5L179.039 154.359C173.633 159.688 170.016 162.352 168.188 162.352C167.828 162.352 167.516 162.219 167.25 161.953C166.984 161.688 166.852 161.328 166.852 160.875C166.852 159.875 167.398 158.812 168.492 157.688L172.008 154.078L171.844 153.984C171.219 154.562 169.766 155.781 167.484 157.641ZM208.195 140.18L210.117 140.156L193.5 156.727C190.844 159.383 189.516 160.953 189.516 161.438C189.516 161.641 189.602 161.812 189.773 161.953C189.961 162.094 190.164 162.164 190.383 162.164C190.836 162.164 191.531 161.852 192.469 161.227C193.422 160.602 194.984 159.352 197.156 157.477L197.32 157.641L195.375 159.258C193.797 160.57 192.672 161.422 192 161.812C191.328 162.203 190.789 162.398 190.383 162.398C190.023 162.398 189.711 162.289 189.445 162.07C189.195 161.852 189.07 161.555 189.07 161.18C189.07 160.414 189.516 159.445 190.406 158.273L190.312 158.18C189.656 158.805 188.703 159.578 187.453 160.5C186.219 161.406 185.328 161.953 184.781 162.141C184.25 162.328 183.773 162.422 183.352 162.422C182.852 162.422 182.461 162.25 182.18 161.906C181.914 161.562 181.781 161.125 181.781 160.594C181.781 159.453 182.297 158.312 183.328 157.172C184.375 156.016 185.797 155.039 187.594 154.242C189.391 153.43 190.781 153.023 191.766 153.023C192.188 153.023 192.539 153.141 192.82 153.375C193.102 153.609 193.242 153.914 193.242 154.289C193.242 154.508 193.148 154.844 192.961 155.297L208.195 140.18ZM192.961 154.266C192.961 153.625 192.594 153.305 191.859 153.305C190.609 153.305 188.711 154.414 186.164 156.633C183.633 158.852 182.367 160.414 182.367 161.32C182.367 161.867 182.703 162.141 183.375 162.141C184.062 162.141 184.758 161.938 185.461 161.531C186.18 161.109 187.273 160.336 188.742 159.211C190.227 158.07 191.297 157.109 191.953 156.328C192.625 155.531 192.961 154.844 192.961 154.266ZM208.852 148.266C208.852 148.609 208.711 148.898 208.43 149.133C208.148 149.367 207.852 149.484 207.539 149.484C207.32 149.484 207.133 149.406 206.977 149.25C206.82 149.078 206.742 148.875 206.742 148.641C206.742 148.344 206.875 148.062 207.141 147.797C207.406 147.531 207.703 147.398 208.031 147.398C208.266 147.398 208.461 147.484 208.617 147.656C208.773 147.828 208.852 148.031 208.852 148.266ZM197.344 157.641L197.18 157.477C197.945 156.82 199.875 155.289 202.969 152.883H205.242L197.812 160.195C197.531 160.477 197.344 160.758 197.25 161.039V161.203C197.25 161.406 197.328 161.586 197.484 161.742C197.641 161.898 197.836 161.977 198.07 161.977C198.57 161.977 199.273 161.727 200.18 161.227C201.102 160.711 202.703 159.461 204.984 157.477L205.148 157.641C201.664 160.688 199.312 162.211 198.094 162.211C197.703 162.211 197.383 162.086 197.133 161.836C196.898 161.586 196.781 161.25 196.781 160.828C196.781 160.234 196.977 159.609 197.367 158.953C197.773 158.281 199.273 156.695 201.867 154.195L201.82 154.078L199.664 155.719L197.344 157.641ZM215.391 157.477L215.555 157.641C214.977 158.188 214.383 158.461 213.773 158.461C213.273 158.461 212.852 158.281 212.508 157.922C211.352 159.141 210.117 160.164 208.805 160.992C207.492 161.82 206.398 162.234 205.523 162.234C205.07 162.234 204.688 162.07 204.375 161.742C204.062 161.414 203.906 160.961 203.906 160.383C203.906 159.055 204.5 157.781 205.688 156.562C206.875 155.328 208.234 154.375 209.766 153.703C211.312 153.016 212.539 152.672 213.445 152.672C214.336 152.672 214.781 153.094 214.781 153.938C214.781 154.812 214.078 156.07 212.672 157.711C212.953 158.055 213.328 158.227 213.797 158.227C214.328 158.227 214.859 157.977 215.391 157.477ZM214.57 153.867C214.57 153.57 214.453 153.328 214.219 153.141C214 152.953 213.75 152.859 213.469 152.859C212.281 152.859 210.484 154.047 208.078 156.422C205.688 158.797 204.492 160.367 204.492 161.133C204.492 161.352 204.602 161.555 204.82 161.742C205.039 161.914 205.289 162 205.57 162C206.227 162 207.164 161.664 208.383 160.992C209.617 160.305 210.695 159.477 211.617 158.508C212.555 157.523 213.281 156.648 213.797 155.883C214.312 155.102 214.57 154.43 214.57 153.867Z" fill="white"/>
<path d="M105.456 60.872C103.749 60.872 102.896 60.1893 102.896 58.824C102.896 58.3973 103.024 57.928 103.28 57.416C103.707 56.392 104.432 55.496 105.456 54.728C106.565 53.8747 107.632 53.448 108.656 53.448C110.277 53.448 111.088 54.1307 111.088 55.496C111.088 56.776 110.491 57.9707 109.296 59.08C108.101 60.1893 106.821 60.7867 105.456 60.872ZM77.6799 109.256C75.3759 109.256 73.7546 108.659 72.8159 107.464C71.7919 106.184 71.2799 104.605 71.2799 102.728C71.2799 100.253 72.0479 97.608 73.5839 94.792C75.0346 91.8907 76.8693 89.032 79.0879 86.216C81.3066 83.3147 83.5679 80.6267 85.8719 78.152C88.1759 75.592 90.1813 73.5013 91.8879 71.88C93.5093 70.2587 95.1733 69.064 96.8799 68.296C98.5866 67.528 100.037 67.016 101.232 66.76C102.512 66.4187 103.152 66.248 103.152 66.248C101.275 68.3813 98.7146 71.4107 95.4719 75.336C92.2293 79.2613 89.0293 83.4427 85.8719 87.88C85.6159 88.2213 85.0186 89.0747 84.0799 90.44C83.1413 91.8053 82.0746 93.384 80.8799 95.176C79.7706 96.968 78.7893 98.7173 77.9359 100.424C77.1679 102.131 76.7839 103.496 76.7839 104.52C76.7839 106.141 77.6373 106.952 79.3439 106.952C80.6239 106.952 81.9893 106.483 83.4399 105.544C84.9759 104.605 86.5119 103.453 88.0479 102.088C89.5839 100.723 90.9493 99.4 92.1439 98.12C93.4239 96.7547 94.4053 95.6453 95.0879 94.792C95.4293 94.792 95.5999 95.048 95.5999 95.56C95.5999 96.328 95.4293 96.9253 95.0879 97.352C91.8453 101.107 88.9013 104.051 86.2559 106.184C83.6959 108.232 80.8373 109.256 77.6799 109.256ZM98.6679 109.384C94.4013 109.384 92.2679 107.421 92.2679 103.496C92.2679 102.216 92.5666 100.723 93.1639 99.016C93.7613 97.3093 94.8706 95.048 96.4919 92.232C98.7106 88.392 101.825 83.8693 105.836 78.664C109.932 73.4587 114.284 68.3813 118.892 63.432C122.903 58.9093 127.255 54.7707 131.948 51.016C136.727 47.176 141.676 44.5307 146.796 43.08C147.564 42.824 148.46 42.6107 149.484 42.44C150.508 42.2693 151.575 42.184 152.684 42.184C154.732 42.184 156.481 42.4827 157.932 43.08C158.615 43.4213 159.297 43.8907 159.98 44.488C160.663 45 161.132 45.768 161.388 46.792C160.449 46.024 159.383 45.4693 158.188 45.128C156.993 44.7013 155.543 44.488 153.836 44.488C149.399 44.488 145.132 45.9387 141.036 48.84C136.94 51.7413 132.844 55.496 128.748 60.104C124.737 64.6267 120.513 69.448 116.076 74.568C114.369 76.5307 112.492 78.9627 110.444 81.864C108.396 84.7653 106.433 87.6667 104.556 90.568C102.764 93.4693 101.313 95.944 100.204 97.992C99.6066 98.9307 99.1373 99.9547 98.7959 101.064C98.5399 102.088 98.4119 102.941 98.4119 103.624C98.4119 105.672 99.1799 106.696 100.716 106.696C102.337 106.696 104.129 105.928 106.092 104.392C108.14 102.856 110.06 101.149 111.852 99.272C113.729 97.3947 115.137 95.9013 116.076 94.792C116.417 94.792 116.588 95.048 116.588 95.56C116.588 96.328 116.417 96.9253 116.076 97.352C112.663 101.277 109.505 104.264 106.604 106.312C103.788 108.36 101.143 109.384 98.6679 109.384ZM118.9 109C116.852 109 115.401 108.531 114.548 107.592C113.695 106.653 113.268 105.459 113.268 104.008C113.268 102.557 113.609 100.979 114.292 99.272C114.889 97.48 115.657 95.7307 116.596 94.024C118.217 91.2933 120.052 88.5627 122.1 85.832C124.233 83.016 126.367 80.4133 128.5 78.024C130.719 75.6347 132.681 73.5867 134.388 71.88C136.009 70.2587 137.673 69.064 139.38 68.296C141.087 67.528 142.537 67.016 143.732 66.76C145.012 66.4187 145.652 66.248 145.652 66.248C143.775 68.3813 141.215 71.4107 137.972 75.336C134.815 79.2613 131.615 83.4427 128.372 87.88C128.031 88.3067 127.391 89.2027 126.452 90.568C125.599 91.9333 124.66 93.4693 123.636 95.176C122.612 96.7973 121.716 98.4187 120.948 100.04C120.265 101.576 119.924 102.813 119.924 103.752C119.924 104.691 120.436 105.117 121.46 105.032C122.569 104.947 124.02 104.136 125.812 102.6C127.604 101.064 129.524 99.1867 131.572 96.968C133.62 94.7493 135.54 92.5733 137.332 90.44C139.209 88.2213 140.745 86.3867 141.94 84.936C142.879 83.8267 144.031 82.4613 145.396 80.84C146.761 79.1333 148.169 77.384 149.62 75.592C151.071 73.8 152.393 72.2213 153.588 70.856C154.953 69.32 156.404 68.2533 157.94 67.656C159.476 66.9733 160.799 66.5893 161.908 66.504C163.103 66.3333 163.7 66.248 163.7 66.248C163.017 67.1013 161.652 68.7653 159.604 71.24C157.641 73.7147 155.423 76.6587 152.948 80.072C150.473 83.4 148.127 86.8987 145.908 90.568C143.689 94.152 141.983 97.5653 140.788 100.808C140.191 102.259 139.892 103.453 139.892 104.392C139.892 105.245 140.105 105.843 140.532 106.184C140.959 106.44 141.428 106.568 141.94 106.568C143.135 106.568 144.457 106.056 145.908 105.032C147.444 104.008 148.895 102.813 150.26 101.448C151.711 99.9973 152.991 98.632 154.1 97.352C155.209 96.072 155.935 95.2187 156.276 94.792C156.617 94.792 156.788 95.048 156.788 95.56C156.788 96.328 156.617 96.9253 156.276 97.352C154.996 98.888 153.417 100.552 151.54 102.344C149.748 104.136 147.828 105.715 145.78 107.08C143.817 108.36 141.855 109 139.892 109C137.759 109 136.265 108.488 135.412 107.464C134.559 106.44 134.132 105.16 134.132 103.624C134.132 102.173 134.431 100.595 135.028 98.888C135.625 97.096 136.351 95.432 137.204 93.896C136.18 94.92 134.943 96.2853 133.492 97.992C132.127 99.6133 130.591 101.277 128.884 102.984C127.177 104.691 125.471 106.141 123.764 107.336C122.057 108.445 120.436 109 118.9 109Z" fill="white"/>
</svg>
