<svg width="202" height="202" viewBox="0 0 202 202" fill="none" xmlns="http://www.w3.org/2000/svg">
<ellipse cx="97.5845" cy="106.265" rx="97.5845" ry="95.7346" fill="#D9D9D9"/>
<path d="M191.266 106.265C191.266 157.023 149.323 198.171 97.5845 198.171C45.8459 198.171 3.90338 157.023 3.90338 106.265C3.90338 55.5075 45.8459 14.3602 97.5845 14.3602C149.323 14.3602 191.266 55.5075 191.266 106.265Z" fill="#2E2424"/>
<path d="M42.5528 139.646L41.5684 141.052L39.6524 141.017L40.7598 139.435C38.5919 139.06 36.6641 138.269 34.9766 137.062C31.4141 139.945 28.0274 141.386 24.8165 141.386C23.4337 141.386 22.168 141.017 21.0196 140.279C19.8829 139.54 19.3145 138.615 19.3145 137.501C19.3145 136.892 19.4844 136.417 19.8243 136.078C20.1758 135.726 20.5626 135.55 20.9844 135.55C21.3712 135.55 21.6993 135.685 21.9688 135.954C22.2383 136.212 22.3731 136.523 22.3731 136.886C22.3731 137.203 22.2559 137.472 22.0215 137.695C21.7989 137.917 21.5235 138.029 21.1954 138.029C20.4571 138.029 20.0645 137.548 20.0176 136.587L19.9473 136.57C19.6661 136.91 19.5255 137.285 19.5255 137.695C19.5255 138.644 20.0821 139.47 21.1954 140.173C22.3087 140.876 23.5919 141.228 25.045 141.228C26.7794 141.228 28.6016 140.747 30.5118 139.786C32.4219 138.826 33.8633 137.87 34.836 136.921C32.2227 134.46 30.9161 131.818 30.9161 128.994C30.9161 127.259 31.3731 125.794 32.2872 124.599C33.213 123.392 34.3614 122.788 35.7325 122.788C37.2911 122.788 38.709 123.415 39.9864 124.669C41.2637 125.911 42.2364 127.552 42.9044 129.591C47.7676 125.091 51.2422 122.138 53.3282 120.732C55.4141 119.326 57.295 118.277 58.9708 117.585C60.6583 116.882 62.2462 116.501 63.7344 116.443L58.795 120.925C56.4395 123.058 53.4864 126.21 49.9356 130.382C46.3848 134.542 43.9708 137.566 42.6934 139.453C44.6856 139.347 46.3438 138.749 47.668 137.66L47.7911 137.783C46.4669 138.872 44.7208 139.494 42.5528 139.646ZM42.9395 129.82C43.1153 130.488 43.2032 131.179 43.2032 131.894C43.2032 133.652 42.6817 135.708 41.6387 138.064L41.7794 138.134C44.8848 133.857 48.5938 129.556 52.9063 125.232C57.2188 120.908 60.5645 118.101 62.9434 116.812L62.9083 116.689C60.6348 116.9 57.963 117.96 54.8926 119.87C51.8223 121.781 47.838 125.097 42.9395 129.82ZM34.9766 136.816C35.9024 136.113 37.2559 134.947 39.0372 133.318C40.8184 131.677 42.0606 130.476 42.7637 129.714C42.2833 128.038 41.4454 126.591 40.2501 125.372C39.0665 124.154 37.7657 123.544 36.3477 123.544C34.8712 123.544 33.6348 124.089 32.6387 125.179C31.6544 126.269 31.1622 127.64 31.1622 129.292C31.1622 132.011 32.4337 134.519 34.9766 136.816ZM40.8829 139.277C42.3243 136.535 43.045 134.079 43.045 131.911C43.045 131.279 42.9688 130.611 42.8165 129.908C39.8868 132.802 37.3204 135.152 35.1172 136.956C35.7266 137.46 36.5997 137.947 37.7364 138.415C38.8731 138.872 39.9219 139.16 40.8829 139.277ZM54.7872 137.66L54.9102 137.783C53.504 139.025 52.2208 139.927 51.0606 140.49C49.9005 141.04 48.9747 141.316 48.2833 141.316C47.3223 141.316 46.8419 140.824 46.8419 139.839C46.8419 138.515 47.7442 137.267 49.5489 136.095C51.3653 134.923 52.7833 134.337 53.8028 134.337C53.9903 134.337 54.1485 134.39 54.2774 134.495C54.418 134.601 54.4883 134.73 54.4883 134.882C54.4883 135.456 53.92 136.06 52.7833 136.693C51.6465 137.326 50.3868 137.718 49.004 137.87C47.8087 139.066 47.211 139.886 47.211 140.331C47.211 140.542 47.3165 140.742 47.5274 140.929C47.7383 141.105 47.9844 141.193 48.2657 141.193C48.8751 141.193 49.7364 140.929 50.8497 140.402C51.9747 139.863 53.2872 138.949 54.7872 137.66ZM49.2676 137.66C49.6192 137.66 50.2403 137.507 51.1309 137.203C52.0215 136.898 52.7598 136.505 53.3458 136.025C53.9434 135.544 54.2422 135.146 54.2422 134.829C54.2422 134.607 54.1133 134.495 53.8555 134.495C53.5508 134.495 53.211 134.589 52.836 134.777C52.4727 134.964 51.9161 135.351 51.1661 135.937C50.4161 136.511 49.7833 137.085 49.2676 137.66ZM54.8926 137.783L54.7696 137.66L61.2208 132.263L61.3262 132.439C60.834 132.837 60.5176 133.136 60.377 133.335C60.2364 133.535 60.1661 133.786 60.1661 134.091C60.1661 134.337 60.2071 134.718 60.2891 135.234C60.3712 135.738 60.4122 136.201 60.4122 136.622C60.4122 137.478 60.1075 138.269 59.4981 138.995L61.0801 137.66L61.2032 137.783C58.5665 140.103 56.4278 141.263 54.7872 141.263C54.3887 141.263 54.043 141.152 53.7501 140.929C53.4688 140.695 53.3282 140.396 53.3282 140.033C53.3282 139.763 53.4219 139.535 53.6094 139.347C53.7852 139.148 53.9962 139.048 54.2422 139.048C54.3946 139.048 54.5235 139.101 54.629 139.206C54.7462 139.312 54.8047 139.435 54.8047 139.576C54.8047 139.775 54.7227 139.956 54.5587 140.12C54.4063 140.273 54.2422 140.349 54.0665 140.349C53.9962 140.349 53.9024 140.331 53.7852 140.296C53.7852 140.812 54.1133 141.07 54.7696 141.07C55.6954 141.07 56.7383 140.396 57.8985 139.048C59.0704 137.701 59.7149 136.283 59.8321 134.794C59.879 134.314 59.961 133.88 60.0782 133.494L54.8926 137.783ZM61.2208 137.783L61.0977 137.66L65.9317 133.704L67.9883 132.087H66.3887L66.459 131.929H68.2344L71.2051 128.818L72.6993 128.783L69.834 131.929H72.3653L72.3126 132.087H69.6583L63.5938 138.556C62.8672 139.329 62.4278 139.816 62.2755 140.015C62.1348 140.214 62.0645 140.402 62.0645 140.578C62.0645 140.753 62.1348 140.906 62.2755 141.035C62.4278 141.152 62.586 141.21 62.7501 141.21C63.711 141.21 65.5508 140.027 68.2696 137.66L68.3926 137.783C65.5684 140.208 63.6758 141.421 62.7149 141.421C62.4102 141.421 62.1465 141.298 61.9239 141.052C61.713 140.794 61.6075 140.495 61.6075 140.156C61.6075 139.277 62.1934 138.216 63.3653 136.974L66.9512 133.247L66.8809 133.195L61.2208 137.783ZM68.3926 137.783L68.2696 137.66L69.9571 136.271C70.8712 135.509 71.9551 134.695 73.209 133.828C74.4747 132.96 75.1192 132.515 75.1426 132.492L79.9942 127.535C80.9434 126.562 81.8692 125.683 82.7715 124.898C83.6856 124.113 84.5821 123.451 85.461 122.911C86.3399 122.361 87.0137 122.009 87.4825 121.857C87.963 121.704 88.338 121.628 88.6075 121.628C89.3223 121.628 89.6797 121.968 89.6797 122.648C89.6797 123.55 88.6719 124.822 86.6563 126.462C84.6407 128.103 82.0333 129.656 78.834 131.12C77.4864 131.742 76.7247 132.146 76.5489 132.333L74.668 134.425C73.3907 135.843 72.0958 137.355 70.7833 138.96L70.9415 139.013C72.2305 137.783 73.5958 136.663 75.0372 135.656C76.4786 134.636 77.545 134.126 78.2364 134.126C78.9747 134.126 79.3438 134.501 79.3438 135.251C79.3438 135.72 79.2266 136.177 78.9922 136.622C78.7696 137.056 78.2657 137.607 77.4805 138.275L76.4083 139.189C75.6348 139.845 75.2481 140.326 75.2481 140.63C75.2481 140.923 75.4239 141.07 75.7755 141.07C76.8301 141.07 78.6407 139.933 81.2071 137.66L81.3126 137.783L79.9415 138.943C79.2383 139.54 78.4825 140.074 77.6739 140.542C76.8653 141.011 76.2383 141.245 75.793 141.245C75.4883 141.245 75.2422 141.128 75.0547 140.894C74.879 140.648 74.7911 140.337 74.7911 139.962C74.7911 139.54 74.9258 139.154 75.1954 138.802C75.4649 138.439 76.0508 137.87 76.9532 137.097C77.8672 136.324 78.4239 135.814 78.6231 135.568C78.834 135.322 78.9395 135.099 78.9395 134.9C78.9395 134.724 78.8633 134.583 78.711 134.478C78.5704 134.361 78.4122 134.302 78.2364 134.302C77.9903 134.302 77.5743 134.431 76.9883 134.689C76.4024 134.947 75.5821 135.456 74.5274 136.218C73.4727 136.968 72.4297 137.841 71.3985 138.837C70.3672 139.822 69.5645 140.56 68.9903 141.052L67.2501 141.07L74.5098 133.283L74.4395 133.195C73.3731 133.804 71.3575 135.333 68.3926 137.783ZM89.3985 122.595C89.3985 122.103 89.1465 121.857 88.6426 121.857C87.9278 121.857 87.0313 122.226 85.9532 122.964C84.8751 123.703 83.17 125.29 80.838 127.728C78.5059 130.154 77.3399 131.431 77.3399 131.56C77.3399 131.583 78.1133 131.238 79.6602 130.523C80.5743 130.089 81.4942 129.609 82.42 129.081C83.838 128.261 85.0274 127.482 85.9883 126.744C86.9493 125.994 87.7403 125.249 88.3614 124.511C88.8419 123.949 89.1524 123.474 89.293 123.087C89.3633 122.911 89.3985 122.747 89.3985 122.595ZM88.3262 137.66L88.4493 137.783C87.043 139.025 85.7598 139.927 84.5997 140.49C83.4395 141.04 82.5137 141.316 81.8223 141.316C80.8614 141.316 80.3809 140.824 80.3809 139.839C80.3809 138.515 81.2833 137.267 83.088 136.095C84.9044 134.923 86.3223 134.337 87.3419 134.337C87.5294 134.337 87.6876 134.39 87.8165 134.495C87.9571 134.601 88.0274 134.73 88.0274 134.882C88.0274 135.456 87.459 136.06 86.3223 136.693C85.1856 137.326 83.9258 137.718 82.543 137.87C81.3477 139.066 80.7501 139.886 80.7501 140.331C80.7501 140.542 80.8555 140.742 81.0665 140.929C81.2774 141.105 81.5235 141.193 81.8047 141.193C82.4141 141.193 83.2755 140.929 84.3887 140.402C85.5137 139.863 86.8262 138.949 88.3262 137.66ZM82.8067 137.66C83.1583 137.66 83.7794 137.507 84.67 137.203C85.5606 136.898 86.2989 136.505 86.8848 136.025C87.4825 135.544 87.7813 135.146 87.7813 134.829C87.7813 134.607 87.6524 134.495 87.3946 134.495C87.0899 134.495 86.7501 134.589 86.3751 134.777C86.0118 134.964 85.4551 135.351 84.7051 135.937C83.9551 136.511 83.3223 137.085 82.8067 137.66ZM88.4317 137.783L88.3087 137.66L93.1426 133.704L95.1993 132.087H93.5997L93.67 131.929H95.4454L98.4161 128.818L99.9102 128.783L97.045 131.929H99.5762L99.5235 132.087H96.8692L90.8047 138.556C90.0782 139.329 89.6387 139.816 89.4864 140.015C89.3458 140.214 89.2755 140.402 89.2755 140.578C89.2755 140.753 89.3458 140.906 89.4864 141.035C89.6387 141.152 89.7969 141.21 89.961 141.21C90.9219 141.21 92.7618 140.027 95.4805 137.66L95.6036 137.783C92.7794 140.208 90.8868 141.421 89.9258 141.421C89.6212 141.421 89.3575 141.298 89.1348 141.052C88.9239 140.794 88.8184 140.495 88.8184 140.156C88.8184 139.277 89.4044 138.216 90.5762 136.974L94.1622 133.247L94.0919 133.195L88.4317 137.783ZM104.234 130.751C104.234 131.009 104.129 131.226 103.918 131.402C103.707 131.578 103.484 131.665 103.25 131.665C103.086 131.665 102.945 131.607 102.828 131.49C102.711 131.361 102.652 131.208 102.652 131.033C102.652 130.81 102.752 130.599 102.951 130.4C103.15 130.201 103.373 130.101 103.619 130.101C103.795 130.101 103.941 130.165 104.059 130.294C104.176 130.423 104.234 130.576 104.234 130.751ZM95.6036 137.783L95.4805 137.66C96.0547 137.167 97.502 136.019 99.8223 134.214H101.527L95.9551 139.699C95.7442 139.91 95.6036 140.12 95.5333 140.331V140.454C95.5333 140.607 95.5919 140.742 95.709 140.859C95.8262 140.976 95.9727 141.035 96.1485 141.035C96.5235 141.035 97.0508 140.847 97.7305 140.472C98.4219 140.085 99.6231 139.148 101.334 137.66L101.457 137.783C98.8438 140.068 97.0801 141.21 96.1661 141.21C95.8731 141.21 95.6329 141.117 95.4454 140.929C95.2696 140.742 95.1817 140.49 95.1817 140.173C95.1817 139.728 95.3282 139.259 95.6212 138.767C95.9258 138.263 97.0508 137.074 98.9962 135.199L98.961 135.111L97.3438 136.341L95.6036 137.783ZM108.084 137.66L108.207 137.783C107.188 138.697 106.057 139.517 104.815 140.244C103.572 140.958 102.6 141.316 101.897 141.316C100.982 141.316 100.525 140.8 100.525 139.769C100.525 138.351 101.387 137.062 103.109 135.902C104.832 134.742 106.121 134.161 106.977 134.161C107.27 134.161 107.51 134.249 107.697 134.425C107.897 134.589 107.996 134.794 107.996 135.04C107.996 135.392 107.844 135.726 107.539 136.042C107.234 136.359 106.947 136.517 106.678 136.517C106.525 136.517 106.385 136.453 106.256 136.324C106.127 136.195 106.063 136.06 106.063 135.919C106.063 135.72 106.145 135.544 106.309 135.392C106.473 135.228 106.654 135.146 106.854 135.146C107.053 135.146 107.193 135.222 107.275 135.374C107.357 135.527 107.422 135.603 107.469 135.603C107.563 135.603 107.645 135.533 107.715 135.392C107.785 135.251 107.82 135.128 107.82 135.023C107.82 134.824 107.738 134.66 107.574 134.531C107.41 134.402 107.24 134.337 107.065 134.337C106.361 134.337 105.172 135.24 103.496 137.044C101.82 138.849 100.982 139.997 100.982 140.49C100.982 140.689 101.07 140.847 101.246 140.964C101.422 141.081 101.627 141.14 101.861 141.14C102.6 141.14 103.572 140.777 104.779 140.05C105.998 139.324 107.1 138.527 108.084 137.66ZM139.109 128.115C135.863 133.447 132.723 136.968 129.688 138.679C126.664 140.378 123.582 141.228 120.441 141.228C118.953 141.228 117.77 140.958 116.891 140.419C116.023 139.88 115.59 139.165 115.59 138.275C115.59 137.712 115.766 137.238 116.117 136.851C116.481 136.453 116.914 136.253 117.418 136.253C117.746 136.253 118.022 136.341 118.244 136.517C118.479 136.693 118.596 136.927 118.596 137.22C118.596 137.49 118.496 137.724 118.297 137.923C118.098 138.111 117.857 138.204 117.576 138.204C117.33 138.204 117.113 138.128 116.926 137.976C116.75 137.812 116.662 137.63 116.662 137.431C116.662 137.384 116.674 137.302 116.697 137.185C116.604 137.138 116.545 137.115 116.522 137.115C116.381 137.115 116.24 137.232 116.1 137.466C115.971 137.701 115.906 137.964 115.906 138.257C115.906 139.089 116.293 139.763 117.066 140.279C117.852 140.783 118.977 141.035 120.441 141.035C122.422 141.035 124.356 140.636 126.242 139.839C128.141 139.031 129.857 137.847 131.393 136.288C132.928 134.718 134.879 132.169 137.246 128.642C134.563 129.38 132.184 129.749 130.109 129.749C127.801 129.749 126.014 129.286 124.748 128.361C123.494 127.435 122.867 126.298 122.867 124.951C122.867 122.701 124.063 120.749 126.453 119.097C128.856 117.433 132.084 116.601 136.139 116.601C137.111 116.601 138.125 116.654 139.18 116.759L139.145 116.917C138.195 116.8 137.287 116.742 136.42 116.742C132.377 116.742 129.143 117.673 126.717 119.536C124.303 121.4 123.096 123.251 123.096 125.091C123.096 126.275 123.699 127.318 124.906 128.22C126.125 129.111 127.9 129.556 130.232 129.556C131.908 129.556 134.299 129.175 137.404 128.413C139.49 125.097 141.893 122.478 144.611 120.556C147.33 118.634 149.492 117.673 151.098 117.673C151.59 117.673 151.988 117.802 152.293 118.06C152.609 118.306 152.768 118.605 152.768 118.956C152.768 119.882 152.117 120.966 150.816 122.208C149.516 123.439 147.594 124.663 145.051 125.882C142.52 127.089 140.539 127.833 139.109 128.115ZM139.232 127.904C142.315 127.095 145.291 125.736 148.162 123.826C151.033 121.915 152.469 120.316 152.469 119.027C152.469 118.71 152.352 118.447 152.117 118.236C151.883 118.025 151.549 117.919 151.115 117.919C150.084 117.919 148.889 118.271 147.529 118.974C146.17 119.677 144.664 120.949 143.012 122.788C141.359 124.617 140.1 126.322 139.232 127.904ZM136.982 137.783L136.859 137.66L141.693 133.704L143.75 132.087H142.15L142.221 131.929H143.996L146.967 128.818L148.461 128.783L145.596 131.929H148.127L148.074 132.087H145.42L139.356 138.556C138.629 139.329 138.19 139.816 138.037 140.015C137.897 140.214 137.826 140.402 137.826 140.578C137.826 140.753 137.897 140.906 138.037 141.035C138.19 141.152 138.348 141.21 138.512 141.21C139.473 141.21 141.313 140.027 144.031 137.66L144.154 137.783C141.33 140.208 139.438 141.421 138.477 141.421C138.172 141.421 137.908 141.298 137.686 141.052C137.475 140.794 137.369 140.495 137.369 140.156C137.369 139.277 137.955 138.216 139.127 136.974L142.713 133.247L142.643 133.195L136.982 137.783ZM144.154 137.783L144.031 137.66C145.367 136.57 146.299 135.79 146.826 135.322C147.354 134.841 147.811 134.472 148.197 134.214H149.867C149.539 134.566 149.076 135.035 148.479 135.62L144.594 139.646C144.289 139.962 144.102 140.226 144.031 140.437V140.56C144.031 140.712 144.096 140.853 144.225 140.982C144.365 141.099 144.529 141.158 144.717 141.158C145.232 141.158 145.977 140.835 146.949 140.191C147.934 139.535 148.83 138.82 149.639 138.046L151.871 135.954C152.481 135.392 153.119 134.812 153.787 134.214H155.527C153.945 135.749 152.686 137.044 151.748 138.099L150.588 139.4C150.025 140.033 149.744 140.454 149.744 140.665C149.744 141.005 149.961 141.175 150.395 141.175C150.91 141.175 151.572 140.894 152.381 140.331C153.201 139.757 154.303 138.867 155.686 137.66L155.809 137.783C153.793 139.529 152.463 140.566 151.818 140.894C151.186 141.222 150.699 141.386 150.359 141.386C150.102 141.386 149.873 141.286 149.674 141.087C149.486 140.888 149.393 140.619 149.393 140.279C149.393 139.423 150.008 138.38 151.238 137.15L152.908 135.427L152.82 135.322C148.766 139.318 146.053 141.316 144.682 141.316C144.412 141.316 144.178 141.216 143.979 141.017C143.779 140.818 143.68 140.548 143.68 140.208C143.68 139.458 144.09 138.661 144.91 137.818L147.547 135.111L147.424 135.04C146.955 135.474 145.865 136.388 144.154 137.783ZM174.688 124.687L176.129 124.669L163.666 137.097C161.674 139.089 160.678 140.267 160.678 140.63C160.678 140.783 160.742 140.911 160.871 141.017C161.012 141.122 161.164 141.175 161.328 141.175C161.668 141.175 162.19 140.941 162.893 140.472C163.607 140.003 164.779 139.066 166.408 137.66L166.531 137.783L165.072 138.995C163.889 139.98 163.045 140.619 162.541 140.911C162.037 141.204 161.633 141.351 161.328 141.351C161.059 141.351 160.824 141.269 160.625 141.105C160.438 140.941 160.344 140.718 160.344 140.437C160.344 139.863 160.678 139.136 161.346 138.257L161.275 138.187C160.783 138.656 160.068 139.236 159.131 139.927C158.205 140.607 157.537 141.017 157.127 141.158C156.729 141.298 156.371 141.369 156.055 141.369C155.68 141.369 155.387 141.24 155.176 140.982C154.977 140.724 154.877 140.396 154.877 139.997C154.877 139.142 155.264 138.286 156.037 137.431C156.822 136.564 157.889 135.831 159.236 135.234C160.584 134.624 161.627 134.32 162.365 134.32C162.682 134.32 162.945 134.408 163.156 134.583C163.367 134.759 163.473 134.988 163.473 135.269C163.473 135.433 163.402 135.685 163.262 136.025L174.688 124.687ZM163.262 135.251C163.262 134.771 162.986 134.531 162.436 134.531C161.498 134.531 160.074 135.363 158.164 137.027C156.266 138.691 155.316 139.863 155.316 140.542C155.316 140.953 155.568 141.158 156.072 141.158C156.588 141.158 157.109 141.005 157.637 140.701C158.176 140.384 158.996 139.804 160.098 138.96C161.211 138.105 162.014 137.384 162.506 136.798C163.01 136.201 163.262 135.685 163.262 135.251ZM175.18 130.751C175.18 131.009 175.074 131.226 174.863 131.402C174.652 131.578 174.43 131.665 174.195 131.665C174.031 131.665 173.891 131.607 173.773 131.49C173.656 131.361 173.598 131.208 173.598 131.033C173.598 130.81 173.697 130.599 173.897 130.4C174.096 130.201 174.318 130.101 174.565 130.101C174.74 130.101 174.887 130.165 175.004 130.294C175.121 130.423 175.18 130.576 175.18 130.751ZM166.549 137.783L166.426 137.66C167 137.167 168.447 136.019 170.768 134.214H172.473L166.9 139.699C166.69 139.91 166.549 140.12 166.479 140.331V140.454C166.479 140.607 166.537 140.742 166.654 140.859C166.772 140.976 166.918 141.035 167.094 141.035C167.469 141.035 167.996 140.847 168.676 140.472C169.367 140.085 170.568 139.148 172.279 137.66L172.402 137.783C169.789 140.068 168.025 141.21 167.111 141.21C166.818 141.21 166.578 141.117 166.391 140.929C166.215 140.742 166.127 140.49 166.127 140.173C166.127 139.728 166.273 139.259 166.566 138.767C166.871 138.263 167.996 137.074 169.941 135.199L169.906 135.111L168.289 136.341L166.549 137.783ZM180.084 137.66L180.207 137.783C179.773 138.193 179.328 138.398 178.871 138.398C178.496 138.398 178.18 138.263 177.922 137.994C177.055 138.908 176.129 139.675 175.145 140.296C174.16 140.917 173.34 141.228 172.684 141.228C172.344 141.228 172.057 141.105 171.822 140.859C171.588 140.613 171.471 140.273 171.471 139.839C171.471 138.843 171.916 137.888 172.807 136.974C173.697 136.048 174.717 135.333 175.865 134.829C177.025 134.314 177.945 134.056 178.625 134.056C179.293 134.056 179.627 134.372 179.627 135.005C179.627 135.661 179.1 136.605 178.045 137.835C178.256 138.093 178.537 138.222 178.889 138.222C179.287 138.222 179.686 138.035 180.084 137.66ZM179.469 134.953C179.469 134.73 179.381 134.548 179.205 134.408C179.041 134.267 178.854 134.197 178.643 134.197C177.752 134.197 176.404 135.087 174.6 136.869C172.807 138.65 171.91 139.828 171.91 140.402C171.91 140.566 171.992 140.718 172.156 140.859C172.32 140.988 172.508 141.052 172.719 141.052C173.211 141.052 173.914 140.8 174.828 140.296C175.754 139.781 176.563 139.16 177.254 138.433C177.957 137.695 178.502 137.038 178.889 136.464C179.275 135.878 179.469 135.374 179.469 134.953Z" fill="white"/>
<path d="M88.385 69.375C88.385 70.2917 88.01 71.0625 87.26 71.6875C86.51 72.3125 85.7183 72.625 84.885 72.625C84.3016 72.625 83.8016 72.4167 83.385 72C82.9683 71.5417 82.76 71 82.76 70.375C82.76 69.5833 83.1141 68.8333 83.8225 68.125C84.5308 67.4167 85.3225 67.0625 86.1975 67.0625C86.8225 67.0625 87.3433 67.2917 87.76 67.75C88.1766 68.2083 88.385 68.75 88.385 69.375ZM57.6975 94.375L57.26 93.9375C59.3016 92.1875 64.4475 88.1042 72.6975 81.6875H78.76L58.9475 101.188C58.1975 101.938 57.6975 102.688 57.4475 103.438V103.875C57.4475 104.417 57.6558 104.896 58.0725 105.312C58.4891 105.729 59.01 105.938 59.635 105.938C60.9683 105.938 62.8433 105.271 65.26 103.938C67.7183 102.562 71.9891 99.2292 78.0725 93.9375L78.51 94.375C69.2183 102.5 62.9475 106.562 59.6975 106.562C58.6558 106.562 57.8016 106.229 57.135 105.562C56.51 104.896 56.1975 104 56.1975 102.875C56.1975 101.292 56.7183 99.625 57.76 97.875C58.8433 96.0833 62.8433 91.8542 69.76 85.1875L69.635 84.875L63.885 89.25L57.6975 94.375ZM78.5725 94.375L78.135 93.9375C87.3016 86.1042 92.6558 81.625 94.1975 80.5C95.7808 79.375 97.01 78.6042 97.885 78.1875C98.8016 77.7708 99.5725 77.25 100.197 76.625C107.281 69.0417 114.072 62.2917 120.572 56.375C127.072 50.4583 132.614 45.875 137.197 42.625C141.822 39.3333 145.677 37.6875 148.76 37.6875C149.885 37.6875 150.822 38.0417 151.572 38.75C152.364 39.4167 152.76 40.1667 152.76 41C152.76 43.4167 150.093 47.0208 144.76 51.8125C139.427 56.5625 132.822 61.3125 124.947 66.0625C117.072 70.8125 111.031 73.7917 106.822 75C105.864 76.125 104.093 78.0833 101.51 80.875L96.51 86.375L90.1975 93.875C85.8225 99.0833 83.4891 102.396 83.1975 103.812V104.375C83.1975 105.75 83.9683 106.438 85.51 106.438C89.0933 106.438 95.5725 102.271 104.947 93.9375L105.385 94.375L101.572 97.625C93.9891 104.083 88.4891 107.312 85.0725 107.312C84.0308 107.312 83.1141 106.896 82.3225 106.062C81.5725 105.271 81.1975 104.312 81.1975 103.188C81.1975 100.104 83.5933 95.6458 88.385 89.8125C93.1766 83.9792 96.26 80.6042 97.635 79.6875L97.5725 79.3125C96.0725 79.9792 93.8641 81.5833 90.9475 84.125L78.5725 94.375ZM107.697 74.0625C111.031 72.9792 116.677 70.1042 124.635 65.4375C132.635 60.7292 139.177 56.0417 144.26 51.375C149.343 46.6667 151.885 43.2083 151.885 41C151.885 40.3333 151.572 39.75 150.947 39.25C150.322 38.7083 149.531 38.4375 148.572 38.4375C146.072 38.4375 143.031 39.6458 139.447 42.0625C135.906 44.4375 130.447 49.4375 123.072 57.0625C115.739 64.6875 110.614 70.3542 107.697 74.0625ZM105.447 94.375L105.01 93.9375C109.76 90.0625 113.072 87.2917 114.947 85.625C116.822 83.9167 118.447 82.6042 119.822 81.6875H125.76C124.593 82.9375 122.947 84.6042 120.822 86.6875L107.01 101C105.927 102.125 105.26 103.062 105.01 103.812V104.25C105.01 104.792 105.239 105.292 105.697 105.75C106.197 106.167 106.781 106.375 107.447 106.375C109.281 106.375 111.927 105.229 115.385 102.938C118.885 100.604 122.072 98.0625 124.947 95.3125L132.885 87.875C135.052 85.875 137.322 83.8125 139.697 81.6875H145.885C140.26 87.1458 135.781 91.75 132.447 95.5L128.322 100.125C126.322 102.375 125.322 103.875 125.322 104.625C125.322 105.833 126.093 106.438 127.635 106.438C129.468 106.438 131.822 105.438 134.697 103.438C137.614 101.396 141.531 98.2292 146.447 93.9375L146.885 94.375C139.718 100.583 134.989 104.271 132.697 105.438C130.447 106.604 128.718 107.188 127.51 107.188C126.593 107.188 125.781 106.833 125.072 106.125C124.406 105.417 124.072 104.458 124.072 103.25C124.072 100.208 126.26 96.5 130.635 92.125L136.572 86L136.26 85.625C121.843 99.8333 112.197 106.938 107.322 106.938C106.364 106.938 105.531 106.583 104.822 105.875C104.114 105.167 103.76 104.208 103.76 103C103.76 100.333 105.218 97.5 108.135 94.5L117.51 84.875L117.072 84.625C115.406 86.1667 111.531 89.4167 105.447 94.375Z" fill="white"/>
</svg>
